<svg width="20" height="14" viewBox="0 0 20 14" fill="none" xmlns="http://www.w3.org/2000/svg">
<path fill-rule="evenodd" clip-rule="evenodd" d="M0.890663 1.15305C0.578164 0.976253 0.37504 0.78178 0.28129 0.569628C0.218791 0.357474 0.226603 0.216039 0.304728 0.145322C0.382853 0.0746039 0.562539 0.0392456 0.843788 0.0392456H9.79688H18.75C19.0312 0.0392456 19.2109 0.0746039 19.289 0.145322C19.3671 0.216039 19.375 0.357474 19.3125 0.569628C19.2187 0.78178 19.0156 0.976253 18.7031 1.15305C13.5469 4.33534 10.9062 5.96184 10.7812 6.03256C10.5312 6.174 10.2031 6.24471 9.79688 6.24471C9.39063 6.24471 9.0625 6.174 8.8125 6.03256C8.6875 5.96184 6.04689 4.33534 0.890663 1.15305ZM19.125 1.3652C19.3438 1.32985 19.4609 1.32101 19.4766 1.33869C19.4922 1.35636 19.5 1.4536 19.5 1.63039V12.5032C19.5 12.7507 19.3828 12.9983 19.1484 13.2458C18.9141 13.4933 18.6875 13.617 18.4688 13.617H9.79688H1.125C0.875 13.617 0.625 13.4933 0.375 13.2458C0.125 12.9983 0 12.7507 0 12.5032V1.63039C0 1.31217 0.140625 1.22377 0.421875 1.3652C0.515625 1.43592 0.90625 1.72763 1.59375 2.24034C2.28125 2.75304 3.13281 3.39834 4.14844 4.17623C5.16406 4.95412 5.98438 5.5729 6.60938 6.03257L2.71875 10.9651C2.625 11.0712 2.60938 11.1596 2.67188 11.2303C2.70312 11.2657 2.75 11.2745 2.8125 11.2568C2.875 11.2392 2.92188 11.2126 2.95312 11.1773L7.54688 6.7751C8.20312 7.27012 8.625 7.57067 8.8125 7.67675C9.0625 7.81819 9.39062 7.8889 9.79688 7.8889C10.2031 7.8889 10.5312 7.81819 10.7812 7.67675C10.9688 7.57067 11.3906 7.27012 12.0469 6.7751L16.6406 11.1773C16.6719 11.2126 16.7188 11.2392 16.7812 11.2568C16.8438 11.2745 16.8906 11.2657 16.9219 11.2303C16.9531 11.195 16.9219 11.1066 16.8281 10.9651L12.9844 6.03257C13.6094 5.5729 14.4219 4.95412 15.4219 4.17623C16.4219 3.39834 17.2656 2.75304 17.9531 2.24034C18.6406 1.72763 19.0312 1.43592 19.125 1.3652Z" fill="#323332"/>
</svg>
