<svg width="20" height="23" viewBox="0 0 20 23" fill="none" xmlns="http://www.w3.org/2000/svg">
<path fill-rule="evenodd" clip-rule="evenodd" d="M1.17188 18.6488C1.14062 18.6134 1.125 18.5957 1.125 18.5957V18.4896C0.375 17.2521 0 15.8908 0 14.4057C0 12.1427 0.765625 10.2687 2.29688 8.78366C2.17188 9.56156 2.10938 10.1627 2.10938 10.587C2.10938 13.0267 2.90625 15.1217 4.5 16.872C6.09375 18.6222 8.01562 19.4974 10.2656 19.4974C10.9844 19.4974 11.6719 19.3913 12.3281 19.1791C10.9219 21.0532 9.125 21.9902 6.9375 21.9902C6.09375 21.9902 5.1875 21.778 4.21875 21.3537H4.17188C4.04688 21.283 3.92188 21.2476 3.79688 21.2476C3.70312 21.2476 3.5625 21.283 3.375 21.3537L0.75 22.5206L1.3125 19.1791C1.3125 19.0024 1.26562 18.8256 1.17188 18.6488ZM11.3438 0.456665C13.5938 0.456665 15.5156 1.3318 17.1094 3.08206C18.7031 4.83232 19.5 6.92732 19.5 9.36708C19.5 11.0289 19.0625 12.6201 18.1875 14.1405L18.1406 14.1936C18.1094 14.2289 18.0938 14.2643 18.0938 14.2996C18 14.5118 17.9531 14.7239 17.9531 14.9361L18.75 18.8609L15.5156 17.4819C15.3281 17.4112 15.1719 17.3758 15.0469 17.3758C14.9531 17.3758 14.8125 17.4112 14.625 17.4819L14.5312 17.535C14.2812 17.641 13.9062 17.7648 13.4062 17.9062C12.75 18.1184 12.0625 18.2245 11.3438 18.2245C9.09375 18.2245 7.17969 17.3582 5.60156 15.6256C4.02344 13.893 3.23438 11.8068 3.23438 9.36708C3.23438 8.73062 3.28125 8.11184 3.375 7.51074C3.75 5.49529 4.6875 3.81575 6.1875 2.47212C7.6875 1.12848 9.40625 0.456665 11.3438 0.456665Z" fill="#323332"/>
</svg>
