<svg width="17" height="23" viewBox="0 0 17 23" fill="none" xmlns="http://www.w3.org/2000/svg">
<path fill-rule="evenodd" clip-rule="evenodd" d="M8.34821 22.7854C7.81063 22.7854 7.35211 22.5618 6.97264 22.1145C6.59318 21.6673 6.40344 21.1395 6.40344 20.5313H10.293C10.293 21.1395 10.1032 21.6673 9.72377 22.1145C9.3443 22.5618 8.88578 22.7854 8.34821 22.7854ZM14.7517 16.0767L16.6964 18.3308V19.4579H0V18.3308L1.94475 16.0767V9.95838C1.94475 8.27673 2.41118 6.78293 3.34403 5.47697C4.27687 4.17101 5.45479 3.32124 6.87778 2.92766V2.12262C6.87778 1.65748 7.01218 1.26391 7.28096 0.941889C7.54975 0.619871 7.9055 0.458862 8.34821 0.458862C8.79091 0.458862 9.14666 0.619871 9.41545 0.941889C9.68424 1.26391 9.81863 1.65748 9.81863 2.12262V2.92766C11.2416 3.32124 12.4195 4.17101 13.3524 5.47697C14.2852 6.78293 14.7517 8.27673 14.7517 9.95838V16.0767Z" fill="#323332"/>
</svg>
